<svg width="17" height="21" viewBox="0 0 17 21" fill="none" xmlns="http://www.w3.org/2000/svg">
<path d="M8.50104 10.3595C9.01927 10.3595 9.46233 10.1749 9.83021 9.80583C10.1983 9.43673 10.3823 8.99307 10.3823 8.47484C10.3823 7.95661 10.1977 7.51347 9.82865 7.14541C9.45955 6.77753 9.0158 6.59359 8.4974 6.59359C7.97917 6.59359 7.53611 6.77814 7.16823 7.14723C6.80017 7.51633 6.61615 7.96008 6.61615 8.47848C6.61615 8.99671 6.80069 9.43977 7.16979 9.80765C7.53889 10.1755 7.98264 10.3595 8.50104 10.3595ZM8.49922 18.3264C10.5371 16.5021 12.0965 14.7523 13.1776 13.0769C14.2587 11.4016 14.7992 9.93421 14.7992 8.67484C14.7992 6.77588 14.1959 5.21477 12.9893 3.9915C11.7827 2.76824 10.286 2.15661 8.49922 2.15661C6.71241 2.15661 5.21571 2.76824 4.00911 3.9915C2.80252 5.21477 2.19922 6.77588 2.19922 8.67484C2.19922 9.93421 2.73976 11.4016 3.82083 13.0769C4.90191 14.7523 6.46137 16.5021 8.49922 18.3264ZM8.49922 20.4056C5.87769 18.134 3.91189 16.0201 2.60182 14.0636C1.29175 12.107 0.636719 10.3108 0.636719 8.67484C0.636719 6.27102 1.41424 4.32492 2.96927 2.83656C4.52448 1.34819 6.36779 0.604004 8.49922 0.604004C10.6306 0.604004 12.474 1.34819 14.0292 2.83656C15.5842 4.32492 16.3617 6.27102 16.3617 8.67484C16.3617 10.3108 15.7067 12.107 14.3966 14.0636C13.0865 16.0201 11.1207 18.134 8.49922 20.4056Z" fill="#0F0F0F"/>
</svg>
