<svg width="21" height="21" viewBox="0 0 21 21" fill="none" xmlns="http://www.w3.org/2000/svg">
<path d="M6.45182 20.456C5.94575 20.456 5.51545 20.2786 5.16094 19.924C4.80642 19.5694 4.62917 19.1392 4.62917 18.6331C4.62917 18.1268 4.80642 17.6964 5.16094 17.3419C5.51545 16.9874 5.94575 16.8102 6.45182 16.8102C6.95807 16.8102 7.38846 16.9874 7.74297 17.3419C8.09748 17.6964 8.27474 18.1268 8.27474 18.6331C8.27474 19.1392 8.09748 19.5694 7.74297 19.924C7.38846 20.2786 6.95807 20.456 6.45182 20.456ZM16.5482 20.456C16.0419 20.456 15.6115 20.2786 15.257 19.924C14.9025 19.5694 14.7253 19.1392 14.7253 18.6331C14.7253 18.1268 14.9025 17.6964 15.257 17.3419C15.6115 16.9874 16.0419 16.8102 16.5482 16.8102C17.0543 16.8102 17.4845 16.9874 17.8391 17.3419C18.1936 17.6964 18.3708 18.1268 18.3708 18.6331C18.3708 19.1392 18.1936 19.5694 17.8391 19.924C17.4845 20.2786 17.0543 20.456 16.5482 20.456ZM5.26589 3.98958L7.90625 9.51849H15.0076C15.0676 9.51849 15.1211 9.50347 15.168 9.47344C15.2147 9.4434 15.2547 9.40165 15.288 9.34818L18.0826 4.27005C18.1227 4.19662 18.126 4.13151 18.0924 4.07474C18.0591 4.01797 18.0023 3.98958 17.9221 3.98958H5.26589ZM4.51693 2.42708H18.9799C19.406 2.42708 19.7281 2.60842 19.9464 2.97109C20.1648 3.33359 20.1752 3.70382 19.9776 4.08177L16.6401 10.1273C16.4693 10.4279 16.2433 10.6619 15.9622 10.8294C15.681 10.9971 15.3728 11.081 15.0378 11.081H7.4375L6.23151 13.2844C6.17804 13.3646 6.17639 13.4514 6.22656 13.5448C6.27656 13.6384 6.35165 13.6852 6.45182 13.6852H18.3708V15.2477H6.45182C5.75738 15.2477 5.23559 14.9482 4.88646 14.3492C4.53715 13.7503 4.52483 13.1523 4.84948 12.5552L6.33568 9.88307L2.54583 1.90625H0.5625V0.34375H3.52734L4.51693 2.42708Z" fill="#0F0F0F"/>
</svg>
