<svg width="20" height="21" viewBox="0 0 20 21" fill="none" xmlns="http://www.w3.org/2000/svg">
<path d="M16.9963 7.89933C16.9963 7.89933 16.4386 14.8166 16.1151 17.7304C15.961 19.1221 15.1013 19.9376 13.6932 19.9633C11.0136 20.0115 8.33091 20.0146 5.65231 19.9581C4.29761 19.9304 3.45233 19.1046 3.30135 17.7376C2.97577 14.7982 2.42116 7.89933 2.42116 7.89933M18.417 4.58347H1M15.061 4.58344C14.2547 4.58344 13.5604 4.01342 13.4023 3.2236L13.1527 1.97469C12.9986 1.3985 12.4769 1 11.8822 1H7.53462C6.93995 1 6.4182 1.3985 6.26414 1.97469L6.01456 3.2236C5.85639 4.01342 5.1621 4.58344 4.35585 4.58344" stroke="#FEFEFE" stroke-width="1.3" stroke-linecap="round" stroke-linejoin="round"/>
</svg>
