<svg width="15" height="17" viewBox="0 0 15 17" fill="none" xmlns="http://www.w3.org/2000/svg">
<path d="M6.3675 16.9811C4.53007 16.7424 3.00946 15.933 1.80568 14.5529C0.601892 13.1726 0 11.5556 0 9.70187C0 8.70592 0.196576 7.75178 0.589728 6.83943C0.982881 5.92692 1.53359 5.12527 2.24185 4.43447L3.2893 5.48193C2.68766 6.03084 2.23393 6.66791 1.92813 7.39316C1.62232 8.1184 1.46942 8.88797 1.46942 9.70187C1.46942 11.1386 1.92813 12.405 2.84554 13.5008C3.76295 14.5965 4.93693 15.2668 6.3675 15.5117V16.9811ZM8.32673 17V15.5306C9.74097 15.2442 10.9109 14.5588 11.8364 13.4744C12.762 12.3899 13.2248 11.1324 13.2248 9.70187C13.2248 8.06917 12.6534 6.68139 11.5105 5.5385C10.3676 4.39562 8.97981 3.82417 7.34712 3.82417H7.00058L8.32306 5.14665L7.29054 6.17892L4.20108 3.08946L7.29054 0L8.32306 1.03227L7.00058 2.35475H7.34712C9.3968 2.35475 11.1337 3.06685 12.5579 4.49105C13.9821 5.91524 14.6942 7.65218 14.6942 9.70187C14.6942 11.5455 14.0908 13.1544 12.8839 14.5284C11.6769 15.9023 10.1578 16.7262 8.32673 17Z" fill="#FEFEFE"/>
</svg>
