<svg width="23" height="20" viewBox="0 0 23 20" fill="none" xmlns="http://www.w3.org/2000/svg">
<path d="M20.9998 8.88497V17.5373C20.9998 18.0858 20.8098 18.55 20.4298 18.93C20.0498 19.31 19.5857 19.5 19.0374 19.5H3.96251C3.41422 19.5 2.95008 19.31 2.57008 18.93C2.19008 18.55 2.00008 18.0858 2.00008 17.5373V8.86407C1.5629 8.50506 1.23474 8.03911 1.01561 7.46621C0.796292 6.8935 0.791768 6.27519 1.00203 5.61127L2.10023 2.02407C2.245 1.56753 2.49064 1.19938 2.83716 0.919629C3.18387 0.639877 3.59798 0.5 4.07949 0.5H18.8995C19.3812 0.5 19.7925 0.633634 20.1334 0.900901C20.4745 1.16817 20.723 1.53568 20.8788 2.00344L21.9979 5.61127C22.2081 6.27519 22.2036 6.89142 21.9843 7.45997C21.7651 8.0287 21.437 8.5037 20.9998 8.88497ZM13.8886 8.1C14.4816 8.1 14.9274 7.91869 15.226 7.55606C15.5246 7.19343 15.6467 6.80402 15.5924 6.38783L14.9326 2.12857H12.3141V6.41714C12.3141 6.87369 12.4686 7.26834 12.7777 7.60111C13.0868 7.9337 13.4571 8.1 13.8886 8.1ZM9.00294 8.1C9.50254 8.1 9.90788 7.9337 10.2189 7.60111C10.5302 7.26834 10.6858 6.87369 10.6858 6.41714V2.12857H8.06732L7.40775 6.42963C7.34912 6.81524 7.47018 7.19008 7.77092 7.55416C8.07166 7.91805 8.48234 8.1 9.00294 8.1ZM4.17151 8.1C4.57376 8.1 4.91965 7.95976 5.20918 7.67929C5.4987 7.39881 5.67757 7.04631 5.74579 6.6218L6.38446 2.12857H4.07949C3.96115 2.12857 3.86723 2.15463 3.79775 2.20674C3.72808 2.25904 3.67588 2.33739 3.64113 2.4418L2.59695 5.97444C2.45363 6.44076 2.52122 6.91159 2.79971 7.38696C3.07801 7.86232 3.53528 8.1 4.17151 8.1ZM18.8286 8.1C19.416 8.1 19.8656 7.86929 20.1774 7.40786C20.4892 6.94643 20.5643 6.46862 20.4029 5.97444L19.3045 2.4209C19.2697 2.31649 19.2176 2.24167 19.1481 2.19643C19.0785 2.15119 18.9845 2.12857 18.8661 2.12857H16.6154L17.2541 6.6218C17.3223 7.04631 17.5012 7.39881 17.7907 7.67929C18.0802 7.95976 18.4262 8.1 18.8286 8.1ZM3.96251 17.8714H19.0374C19.1347 17.8714 19.2147 17.8401 19.2773 17.7775C19.3401 17.7149 19.3715 17.6348 19.3715 17.5373V9.63249C19.2532 9.67573 19.1543 9.70251 19.0748 9.71283C18.9956 9.72332 18.9135 9.72857 18.8286 9.72857C18.3401 9.72857 17.9103 9.64018 17.5394 9.46339C17.1684 9.2866 16.8089 9.00331 16.4607 8.61354C16.156 8.95319 15.7955 9.22399 15.3793 9.42593C14.9631 9.62769 14.4885 9.72857 13.9554 9.72857C13.4947 9.72857 13.0604 9.63285 12.6526 9.4414C12.2447 9.25013 11.8605 8.97418 11.5001 8.61354C11.1646 8.97418 10.7846 9.25013 10.3601 9.4414C9.93538 9.63285 9.50526 9.72857 9.06971 9.72857C8.57969 9.72857 8.12034 9.63981 7.69166 9.4623C7.26299 9.28479 6.88579 9.00187 6.56008 8.61354C6.10335 9.07009 5.68255 9.3701 5.29766 9.5136C4.91296 9.65691 4.53757 9.72857 4.17151 9.72857C4.08646 9.72857 3.9987 9.72332 3.90822 9.71283C3.81774 9.70251 3.72446 9.67573 3.62838 9.63249V17.5373C3.62838 17.6348 3.65977 17.7149 3.72256 17.7775C3.78517 17.8401 3.86515 17.8714 3.96251 17.8714Z" fill="#0F0F0F"/>
</svg>
