<svg width="21" height="15" viewBox="0 0 21 15" fill="none" xmlns="http://www.w3.org/2000/svg">
<path d="M5 15C3.618 15 2.43917 14.5206 1.4635 13.5617C0.487833 12.6029 0 11.4311 0 10.0463C0 8.80392 0.399667 7.71125 1.199 6.76825C1.99833 5.82525 2.98967 5.26658 4.173 5.09225C4.4935 3.59742 5.24517 2.375 6.428 1.425C7.61067 0.475 8.968 0 10.5 0C12.3107 0 13.8467 0.630666 15.108 1.892C16.3693 3.15333 17 4.68933 17 6.5V7H17.3078C18.3616 7.082 19.2404 7.50575 19.9443 8.27125C20.6481 9.03658 21 9.94617 21 11C21 12.1153 20.6154 13.0608 19.8463 13.8365C19.0769 14.6122 18.1346 15 17.0193 15H11.5577C11.0526 15 10.625 14.825 10.275 14.475C9.925 14.125 9.75 13.6974 9.75 13.1923V7.71525L7.9 9.5345L6.84625 8.4905L10.5 4.8365L14.1538 8.4905L13.1 9.5345L11.25 7.71525V13.1923C11.25 13.2692 11.2821 13.3398 11.3462 13.4038C11.4102 13.4679 11.4808 13.5 11.5577 13.5H17C17.7 13.5 18.2917 13.2583 18.775 12.775C19.2583 12.2917 19.5 11.7 19.5 11C19.5 10.3 19.2583 9.70833 18.775 9.225C18.2917 8.74167 17.7 8.5 17 8.5H15.5V6.5C15.5 5.11667 15.0125 3.9375 14.0375 2.9625C13.0625 1.9875 11.8833 1.5 10.5 1.5C9.11667 1.5 7.9375 1.9875 6.9625 2.9625C5.9875 3.9375 5.5 5.11667 5.5 6.5H4.98075C4.03325 6.5 3.21625 6.84167 2.52975 7.525C1.84325 8.20833 1.5 9.03333 1.5 10C1.5 10.9667 1.84167 11.7917 2.525 12.475C3.20833 13.1583 4.03333 13.5 5 13.5H7.5V15H5Z" fill="#8F959E"/>
</svg>
