<svg width="20" height="19" viewBox="0 0 20 19" fill="none" xmlns="http://www.w3.org/2000/svg">
<path d="M7.71128 5.35163L8.49253 7.47272C8.51144 7.52019 8.51779 7.57174 8.51094 7.62238C8.5041 7.67302 8.4843 7.72104 8.45346 7.76179C8.28581 8.00495 8.09194 8.22895 7.87534 8.42976C7.81235 8.4792 7.77075 8.55095 7.75912 8.63017C7.74749 8.7094 7.76672 8.79007 7.81284 8.85554C8.29331 9.50007 9.5394 11.0626 11.1605 11.6212C11.223 11.6418 11.2904 11.6419 11.3529 11.6216C11.4154 11.6012 11.4698 11.5613 11.5082 11.5079L12.1566 10.6446C12.2008 10.5862 12.2642 10.5452 12.3356 10.5288C12.407 10.5124 12.4819 10.5216 12.5472 10.5548L14.5785 11.5704C14.6491 11.6037 14.7045 11.6625 14.7335 11.7349C14.7625 11.8074 14.7629 11.8882 14.7347 11.961C14.5121 12.5938 13.8128 14.1368 12.3167 13.8868C10.3603 13.5866 8.58091 12.5823 7.31284 11.0626C6.08628 9.53132 3.6644 5.59382 7.38706 5.14851C7.45597 5.14166 7.5252 5.15789 7.58388 5.19465C7.64257 5.23142 7.68738 5.28663 7.71128 5.35163Z" fill="white"/>
<path d="M10.125 18.4062C8.49079 18.4085 6.88387 17.9873 5.46094 17.1836L0.773438 18.3867L2.49609 14.5156C1.45478 13.0511 0.898769 11.297 0.90625 9.5C0.90625 4.58984 5.04297 0.59375 10.125 0.59375C15.207 0.59375 19.3438 4.58984 19.3438 9.5C19.3438 14.4102 15.207 18.4062 10.125 18.4062ZM5.70703 15.5039L5.99219 15.6797C7.23432 16.4463 8.66533 16.8521 10.125 16.8516C14.3477 16.8516 17.7812 13.5586 17.7812 9.50781C17.7812 5.45703 14.3477 2.15625 10.125 2.15625C5.90234 2.15625 2.46875 5.44922 2.46875 9.5C2.47049 11.1113 3.02166 12.6739 4.03125 13.9297L4.32422 14.3008L2.91406 16.6914L5.70703 15.5039Z" fill="white"/>
</svg>
